# xmcd
#
# Track frame offsets: 
#        150
#        18264
#        33253
#        51511
#        75421
#        99333
#        121709
#        137866
#        152982
#        175004
#        190886
#        215029
#
# Disc length: 3694 seconds
#
# Revision: 1
# Processed by: cddbd v1.5.2PL0 Copyright (c) Steve Scherf et al.
# Submitted via: ExactAudioCopyFreeDBPlugin 1.0
#
DISCID=990e6c0c
DTITLE=Lukas Nelson and Promise of the Real - Promise of the Real
DYEAR=2010
DGENRE=Blues
TTITLE0=Four Letter Word
TTITLE1=Peaceful Solution
TTITLE2=Toppers
TTITLE3=Sound of Your Memory
TTITLE4=Pali Gap - Hey Baby (New Rising Sun)
TTITLE5=Don't Lose Your Mind
TTITLE6=L.A.
TTITLE7=The Truth
TTITLE8=Start To Go
TTITLE9=Making A Case For Love
TTITLE10=Fathers and Mothers
TTITLE11=All the Pretty Horse
EXTD=
EXTT0=
EXTT1=
EXTT2=
EXTT3=
EXTT4=
EXTT5=
EXTT6=
EXTT7=
EXTT8=
EXTT9=
EXTT10=
EXTT11=
PLAYORDER=
